<mxfile host="app.diagrams.net" modified="2023-10-29T09:48:39.537Z" agent="Mozilla/5.0 (Windows NT 10.0; Win64; x64) AppleWebKit/537.36 (KHTML, like Gecko) Chrome/118.0.0.0 Safari/537.36" etag="lRmF-XZzWtBph_qONYad" version="22.0.8" type="google">
  <diagram name="Страница — 1" id="hFAkbY9ozkWpXjlllX0d">
    <mxGraphModel grid="1" page="1" gridSize="10" guides="1" tooltips="1" connect="1" arrows="1" fold="1" pageScale="1" pageWidth="827" pageHeight="1169" math="0" shadow="0">
      <root>
        <mxCell id="0" />
        <mxCell id="1" parent="0" />
        <mxCell id="3EbpttIAYNJNZLYIJczS-17" style="rounded=0;orthogonalLoop=1;jettySize=auto;html=1;exitX=1;exitY=0.3333333333333333;exitDx=0;exitDy=0;exitPerimeter=0;entryX=0.5;entryY=1;entryDx=0;entryDy=0;" edge="1" parent="1" source="3EbpttIAYNJNZLYIJczS-1" target="3EbpttIAYNJNZLYIJczS-16">
          <mxGeometry relative="1" as="geometry" />
        </mxCell>
        <mxCell id="3EbpttIAYNJNZLYIJczS-26" style="rounded=0;orthogonalLoop=1;jettySize=auto;html=1;exitX=1;exitY=0.3333333333333333;exitDx=0;exitDy=0;exitPerimeter=0;entryX=0;entryY=1;entryDx=0;entryDy=0;" edge="1" parent="1" source="3EbpttIAYNJNZLYIJczS-1" target="3EbpttIAYNJNZLYIJczS-24">
          <mxGeometry relative="1" as="geometry" />
        </mxCell>
        <mxCell id="3EbpttIAYNJNZLYIJczS-30" style="rounded=0;orthogonalLoop=1;jettySize=auto;html=1;exitX=1;exitY=0.3333333333333333;exitDx=0;exitDy=0;exitPerimeter=0;entryX=0;entryY=0.5;entryDx=0;entryDy=0;" edge="1" parent="1" source="3EbpttIAYNJNZLYIJczS-1" target="3EbpttIAYNJNZLYIJczS-29">
          <mxGeometry relative="1" as="geometry" />
        </mxCell>
        <mxCell id="3EbpttIAYNJNZLYIJczS-39" style="rounded=0;orthogonalLoop=1;jettySize=auto;html=1;exitX=0;exitY=0.3333333333333333;exitDx=0;exitDy=0;exitPerimeter=0;entryX=0.5;entryY=1;entryDx=0;entryDy=0;" edge="1" parent="1" source="3EbpttIAYNJNZLYIJczS-1" target="3EbpttIAYNJNZLYIJczS-38">
          <mxGeometry relative="1" as="geometry" />
        </mxCell>
        <mxCell id="3EbpttIAYNJNZLYIJczS-51" style="rounded=0;orthogonalLoop=1;jettySize=auto;html=1;exitX=0;exitY=0.3333333333333333;exitDx=0;exitDy=0;exitPerimeter=0;" edge="1" parent="1" source="3EbpttIAYNJNZLYIJczS-1" target="3EbpttIAYNJNZLYIJczS-50">
          <mxGeometry relative="1" as="geometry" />
        </mxCell>
        <mxCell id="3EbpttIAYNJNZLYIJczS-66" style="rounded=0;orthogonalLoop=1;jettySize=auto;html=1;exitX=0;exitY=0.3333333333333333;exitDx=0;exitDy=0;exitPerimeter=0;entryX=0.5;entryY=0;entryDx=0;entryDy=0;" edge="1" parent="1" source="3EbpttIAYNJNZLYIJczS-1" target="3EbpttIAYNJNZLYIJczS-65">
          <mxGeometry relative="1" as="geometry" />
        </mxCell>
        <mxCell id="3EbpttIAYNJNZLYIJczS-93" style="rounded=0;orthogonalLoop=1;jettySize=auto;html=1;exitX=1;exitY=0.3333333333333333;exitDx=0;exitDy=0;exitPerimeter=0;entryX=0;entryY=0;entryDx=0;entryDy=0;" edge="1" parent="1" source="3EbpttIAYNJNZLYIJczS-1" target="3EbpttIAYNJNZLYIJczS-92">
          <mxGeometry relative="1" as="geometry" />
        </mxCell>
        <mxCell id="3EbpttIAYNJNZLYIJczS-102" style="rounded=0;orthogonalLoop=1;jettySize=auto;html=1;exitX=1;exitY=0.3333333333333333;exitDx=0;exitDy=0;exitPerimeter=0;entryX=0.5;entryY=0;entryDx=0;entryDy=0;" edge="1" parent="1" source="3EbpttIAYNJNZLYIJczS-1" target="3EbpttIAYNJNZLYIJczS-101">
          <mxGeometry relative="1" as="geometry" />
        </mxCell>
        <mxCell id="3EbpttIAYNJNZLYIJczS-1" value="Клиент" style="shape=umlActor;verticalLabelPosition=bottom;verticalAlign=top;html=1;outlineConnect=0;fontSize=14;" vertex="1" parent="1">
          <mxGeometry x="-270" y="420" width="30" height="60" as="geometry" />
        </mxCell>
        <mxCell id="3EbpttIAYNJNZLYIJczS-11" style="rounded=0;orthogonalLoop=1;jettySize=auto;html=1;exitX=1;exitY=0.3333333333333333;exitDx=0;exitDy=0;exitPerimeter=0;entryX=0;entryY=0.5;entryDx=0;entryDy=0;" edge="1" parent="1" source="3EbpttIAYNJNZLYIJczS-2" target="3EbpttIAYNJNZLYIJczS-10">
          <mxGeometry relative="1" as="geometry" />
        </mxCell>
        <mxCell id="3EbpttIAYNJNZLYIJczS-12" style="rounded=0;orthogonalLoop=1;jettySize=auto;html=1;exitX=1;exitY=0.3333333333333333;exitDx=0;exitDy=0;exitPerimeter=0;entryX=0;entryY=0.5;entryDx=0;entryDy=0;" edge="1" parent="1" source="3EbpttIAYNJNZLYIJczS-2" target="3EbpttIAYNJNZLYIJczS-5">
          <mxGeometry relative="1" as="geometry" />
        </mxCell>
        <mxCell id="3EbpttIAYNJNZLYIJczS-13" style="rounded=0;orthogonalLoop=1;jettySize=auto;html=1;exitX=1;exitY=0.3333333333333333;exitDx=0;exitDy=0;exitPerimeter=0;entryX=0;entryY=0.5;entryDx=0;entryDy=0;" edge="1" parent="1" source="3EbpttIAYNJNZLYIJczS-2" target="3EbpttIAYNJNZLYIJczS-6">
          <mxGeometry relative="1" as="geometry" />
        </mxCell>
        <mxCell id="3EbpttIAYNJNZLYIJczS-14" style="rounded=0;orthogonalLoop=1;jettySize=auto;html=1;exitX=1;exitY=0.3333333333333333;exitDx=0;exitDy=0;exitPerimeter=0;entryX=0;entryY=0.5;entryDx=0;entryDy=0;" edge="1" parent="1" source="3EbpttIAYNJNZLYIJczS-2" target="3EbpttIAYNJNZLYIJczS-7">
          <mxGeometry relative="1" as="geometry" />
        </mxCell>
        <mxCell id="3EbpttIAYNJNZLYIJczS-2" value="Гость" style="shape=umlActor;verticalLabelPosition=bottom;verticalAlign=top;html=1;outlineConnect=0;fontSize=14;" vertex="1" parent="1">
          <mxGeometry x="-590" y="1167.5" width="30" height="60" as="geometry" />
        </mxCell>
        <mxCell id="3EbpttIAYNJNZLYIJczS-5" value="Регистрация" style="ellipse;whiteSpace=wrap;html=1;fontSize=14;" vertex="1" parent="1">
          <mxGeometry x="-410" y="1147.5" width="140" height="40" as="geometry" />
        </mxCell>
        <mxCell id="3EbpttIAYNJNZLYIJczS-6" value="Авторизация" style="ellipse;whiteSpace=wrap;html=1;fontSize=14;" vertex="1" parent="1">
          <mxGeometry x="-410" y="1207.5" width="140" height="40" as="geometry" />
        </mxCell>
        <mxCell id="3EbpttIAYNJNZLYIJczS-7" value="Аутентификация" style="ellipse;whiteSpace=wrap;html=1;fontSize=14;" vertex="1" parent="1">
          <mxGeometry x="-410" y="1267.5" width="140" height="40" as="geometry" />
        </mxCell>
        <mxCell id="3EbpttIAYNJNZLYIJczS-88" style="rounded=0;orthogonalLoop=1;jettySize=auto;html=1;exitX=1;exitY=0.5;exitDx=0;exitDy=0;entryX=0;entryY=0.5;entryDx=0;entryDy=0;dashed=1;" edge="1" parent="1" source="3EbpttIAYNJNZLYIJczS-10" target="3EbpttIAYNJNZLYIJczS-87">
          <mxGeometry relative="1" as="geometry" />
        </mxCell>
        <mxCell id="3EbpttIAYNJNZLYIJczS-89" value="include" style="edgeLabel;html=1;align=center;verticalAlign=middle;resizable=0;points=[];" connectable="0" vertex="1" parent="3EbpttIAYNJNZLYIJczS-88">
          <mxGeometry x="-0.0757" y="-1" relative="1" as="geometry">
            <mxPoint as="offset" />
          </mxGeometry>
        </mxCell>
        <mxCell id="3EbpttIAYNJNZLYIJczS-10" value="Просмотр курса валют" style="ellipse;whiteSpace=wrap;html=1;fontSize=14;" vertex="1" parent="1">
          <mxGeometry x="-410" y="1077.5" width="140" height="50" as="geometry" />
        </mxCell>
        <mxCell id="3EbpttIAYNJNZLYIJczS-20" style="rounded=0;orthogonalLoop=1;jettySize=auto;html=1;exitX=0.5;exitY=0;exitDx=0;exitDy=0;entryX=0.5;entryY=1;entryDx=0;entryDy=0;dashed=1;" edge="1" parent="1" source="3EbpttIAYNJNZLYIJczS-16" target="3EbpttIAYNJNZLYIJczS-18">
          <mxGeometry relative="1" as="geometry" />
        </mxCell>
        <mxCell id="3EbpttIAYNJNZLYIJczS-22" value="include" style="edgeLabel;html=1;align=center;verticalAlign=middle;resizable=0;points=[];" connectable="0" vertex="1" parent="3EbpttIAYNJNZLYIJczS-20">
          <mxGeometry x="0.116" relative="1" as="geometry">
            <mxPoint as="offset" />
          </mxGeometry>
        </mxCell>
        <mxCell id="3EbpttIAYNJNZLYIJczS-21" style="rounded=0;orthogonalLoop=1;jettySize=auto;html=1;exitX=1;exitY=0;exitDx=0;exitDy=0;entryX=0.5;entryY=1;entryDx=0;entryDy=0;dashed=1;" edge="1" parent="1" source="3EbpttIAYNJNZLYIJczS-16" target="3EbpttIAYNJNZLYIJczS-19">
          <mxGeometry relative="1" as="geometry" />
        </mxCell>
        <mxCell id="3EbpttIAYNJNZLYIJczS-23" value="include" style="edgeLabel;html=1;align=center;verticalAlign=middle;resizable=0;points=[];" connectable="0" vertex="1" parent="3EbpttIAYNJNZLYIJczS-21">
          <mxGeometry x="-0.0787" y="-2" relative="1" as="geometry">
            <mxPoint as="offset" />
          </mxGeometry>
        </mxCell>
        <mxCell id="3EbpttIAYNJNZLYIJczS-16" value="&lt;font style=&quot;font-size: 14px;&quot;&gt;Управление личным кабинетом&lt;/font&gt;" style="ellipse;whiteSpace=wrap;html=1;" vertex="1" parent="1">
          <mxGeometry x="-290" y="220" width="180" height="60" as="geometry" />
        </mxCell>
        <mxCell id="3EbpttIAYNJNZLYIJczS-18" value="&lt;font style=&quot;font-size: 14px;&quot;&gt;Редактирование личной информации&lt;/font&gt;" style="ellipse;whiteSpace=wrap;html=1;" vertex="1" parent="1">
          <mxGeometry x="-300" y="90" width="200" height="60" as="geometry" />
        </mxCell>
        <mxCell id="3EbpttIAYNJNZLYIJczS-19" value="&lt;font style=&quot;font-size: 14px;&quot;&gt;Просмотр личной информации&lt;/font&gt;" style="ellipse;whiteSpace=wrap;html=1;" vertex="1" parent="1">
          <mxGeometry x="-160" y="20" width="180" height="60" as="geometry" />
        </mxCell>
        <mxCell id="3EbpttIAYNJNZLYIJczS-27" style="rounded=0;orthogonalLoop=1;jettySize=auto;html=1;entryX=0.5;entryY=1;entryDx=0;entryDy=0;dashed=1;exitX=0.5;exitY=0;exitDx=0;exitDy=0;" edge="1" parent="1" source="3EbpttIAYNJNZLYIJczS-24" target="3EbpttIAYNJNZLYIJczS-25">
          <mxGeometry relative="1" as="geometry">
            <mxPoint x="40" y="250" as="sourcePoint" />
          </mxGeometry>
        </mxCell>
        <mxCell id="3EbpttIAYNJNZLYIJczS-28" value="include" style="edgeLabel;html=1;align=center;verticalAlign=middle;resizable=0;points=[];" connectable="0" vertex="1" parent="3EbpttIAYNJNZLYIJczS-27">
          <mxGeometry x="-0.04" relative="1" as="geometry">
            <mxPoint as="offset" />
          </mxGeometry>
        </mxCell>
        <mxCell id="3EbpttIAYNJNZLYIJczS-24" value="&lt;font style=&quot;font-size: 14px;&quot;&gt;Денежные переводы&amp;nbsp;&lt;/font&gt;" style="ellipse;whiteSpace=wrap;html=1;" vertex="1" parent="1">
          <mxGeometry x="-90" y="250" width="140" height="60" as="geometry" />
        </mxCell>
        <mxCell id="3EbpttIAYNJNZLYIJczS-25" value="&lt;font style=&quot;font-size: 14px;&quot;&gt;Приобретение тарифа &quot;Близкие&quot;&lt;/font&gt;" style="ellipse;whiteSpace=wrap;html=1;" vertex="1" parent="1">
          <mxGeometry x="-30" y="110" width="140" height="70" as="geometry" />
        </mxCell>
        <mxCell id="3EbpttIAYNJNZLYIJczS-33" style="rounded=0;orthogonalLoop=1;jettySize=auto;html=1;exitX=1;exitY=0;exitDx=0;exitDy=0;entryX=0;entryY=1;entryDx=0;entryDy=0;dashed=1;" edge="1" parent="1" source="3EbpttIAYNJNZLYIJczS-29" target="3EbpttIAYNJNZLYIJczS-31">
          <mxGeometry relative="1" as="geometry" />
        </mxCell>
        <mxCell id="3EbpttIAYNJNZLYIJczS-35" value="include" style="edgeLabel;html=1;align=center;verticalAlign=middle;resizable=0;points=[];" connectable="0" vertex="1" parent="3EbpttIAYNJNZLYIJczS-33">
          <mxGeometry x="-0.0596" y="2" relative="1" as="geometry">
            <mxPoint x="1" as="offset" />
          </mxGeometry>
        </mxCell>
        <mxCell id="3EbpttIAYNJNZLYIJczS-34" style="rounded=0;orthogonalLoop=1;jettySize=auto;html=1;exitX=1;exitY=0.5;exitDx=0;exitDy=0;entryX=0;entryY=0.5;entryDx=0;entryDy=0;dashed=1;" edge="1" parent="1" source="3EbpttIAYNJNZLYIJczS-29" target="3EbpttIAYNJNZLYIJczS-32">
          <mxGeometry relative="1" as="geometry" />
        </mxCell>
        <mxCell id="3EbpttIAYNJNZLYIJczS-36" value="include" style="edgeLabel;html=1;align=center;verticalAlign=middle;resizable=0;points=[];" connectable="0" vertex="1" parent="3EbpttIAYNJNZLYIJczS-34">
          <mxGeometry x="0.0818" y="1" relative="1" as="geometry">
            <mxPoint as="offset" />
          </mxGeometry>
        </mxCell>
        <mxCell id="3EbpttIAYNJNZLYIJczS-53" style="rounded=0;orthogonalLoop=1;jettySize=auto;html=1;exitX=0.5;exitY=1;exitDx=0;exitDy=0;entryX=0;entryY=0;entryDx=0;entryDy=0;dashed=1;" edge="1" parent="1" source="3EbpttIAYNJNZLYIJczS-29" target="3EbpttIAYNJNZLYIJczS-52">
          <mxGeometry relative="1" as="geometry" />
        </mxCell>
        <mxCell id="3EbpttIAYNJNZLYIJczS-54" value="include" style="edgeLabel;html=1;align=center;verticalAlign=middle;resizable=0;points=[];" connectable="0" vertex="1" parent="3EbpttIAYNJNZLYIJczS-53">
          <mxGeometry x="0.0672" y="1" relative="1" as="geometry">
            <mxPoint as="offset" />
          </mxGeometry>
        </mxCell>
        <mxCell id="3EbpttIAYNJNZLYIJczS-84" style="rounded=0;orthogonalLoop=1;jettySize=auto;html=1;exitX=1;exitY=1;exitDx=0;exitDy=0;dashed=1;" edge="1" parent="1" source="3EbpttIAYNJNZLYIJczS-29" target="3EbpttIAYNJNZLYIJczS-83">
          <mxGeometry relative="1" as="geometry" />
        </mxCell>
        <mxCell id="3EbpttIAYNJNZLYIJczS-85" value="include" style="edgeLabel;html=1;align=center;verticalAlign=middle;resizable=0;points=[];" connectable="0" vertex="1" parent="3EbpttIAYNJNZLYIJczS-84">
          <mxGeometry x="0.0611" y="3" relative="1" as="geometry">
            <mxPoint as="offset" />
          </mxGeometry>
        </mxCell>
        <mxCell id="3EbpttIAYNJNZLYIJczS-29" value="&lt;span style=&quot;font-size: 14px;&quot;&gt;Управление счетами&lt;/span&gt;" style="ellipse;whiteSpace=wrap;html=1;" vertex="1" parent="1">
          <mxGeometry x="-80" y="370" width="130" height="60" as="geometry" />
        </mxCell>
        <mxCell id="3EbpttIAYNJNZLYIJczS-31" value="&lt;font style=&quot;font-size: 14px;&quot;&gt;Открытие счета&lt;/font&gt;" style="ellipse;whiteSpace=wrap;html=1;" vertex="1" parent="1">
          <mxGeometry x="90" y="260" width="140" height="60" as="geometry" />
        </mxCell>
        <mxCell id="3EbpttIAYNJNZLYIJczS-32" value="&lt;font style=&quot;font-size: 14px;&quot;&gt;Переводы средств между счетами&lt;/font&gt;" style="ellipse;whiteSpace=wrap;html=1;" vertex="1" parent="1">
          <mxGeometry x="120" y="330" width="140" height="70" as="geometry" />
        </mxCell>
        <mxCell id="3EbpttIAYNJNZLYIJczS-48" style="rounded=0;orthogonalLoop=1;jettySize=auto;html=1;exitX=0;exitY=0.5;exitDx=0;exitDy=0;entryX=1;entryY=0.5;entryDx=0;entryDy=0;dashed=1;" edge="1" parent="1" source="3EbpttIAYNJNZLYIJczS-38" target="3EbpttIAYNJNZLYIJczS-47">
          <mxGeometry relative="1" as="geometry" />
        </mxCell>
        <mxCell id="3EbpttIAYNJNZLYIJczS-49" value="include" style="edgeLabel;html=1;align=center;verticalAlign=middle;resizable=0;points=[];" connectable="0" vertex="1" parent="3EbpttIAYNJNZLYIJczS-48">
          <mxGeometry x="-0.0795" y="2" relative="1" as="geometry">
            <mxPoint as="offset" />
          </mxGeometry>
        </mxCell>
        <mxCell id="3EbpttIAYNJNZLYIJczS-38" value="&lt;span style=&quot;font-size: 14px;&quot;&gt;Просмотр истории транзакций&lt;/span&gt;" style="ellipse;whiteSpace=wrap;html=1;" vertex="1" parent="1">
          <mxGeometry x="-515" y="220" width="140" height="60" as="geometry" />
        </mxCell>
        <mxCell id="3EbpttIAYNJNZLYIJczS-45" style="rounded=0;orthogonalLoop=1;jettySize=auto;html=1;exitX=0.5;exitY=1;exitDx=0;exitDy=0;endArrow=block;endFill=0;entryX=0.5;entryY=0;entryDx=0;entryDy=0;" edge="1" parent="1" source="3EbpttIAYNJNZLYIJczS-40" target="3EbpttIAYNJNZLYIJczS-38">
          <mxGeometry relative="1" as="geometry">
            <mxPoint x="-430" y="330" as="targetPoint" />
          </mxGeometry>
        </mxCell>
        <mxCell id="3EbpttIAYNJNZLYIJczS-40" value="&lt;span style=&quot;font-size: 14px;&quot;&gt;Просмотр за определенный период&lt;/span&gt;" style="ellipse;whiteSpace=wrap;html=1;" vertex="1" parent="1">
          <mxGeometry x="-530" y="90" width="170" height="60" as="geometry" />
        </mxCell>
        <mxCell id="3EbpttIAYNJNZLYIJczS-44" style="rounded=0;orthogonalLoop=1;jettySize=auto;html=1;exitX=1;exitY=1;exitDx=0;exitDy=0;entryX=0;entryY=0;entryDx=0;entryDy=0;endArrow=block;endFill=0;" edge="1" parent="1" source="3EbpttIAYNJNZLYIJczS-43" target="3EbpttIAYNJNZLYIJczS-38">
          <mxGeometry relative="1" as="geometry" />
        </mxCell>
        <mxCell id="3EbpttIAYNJNZLYIJczS-43" value="&lt;span style=&quot;font-size: 14px;&quot;&gt;Просмотр по дате транзакции&lt;/span&gt;" style="ellipse;whiteSpace=wrap;html=1;" vertex="1" parent="1">
          <mxGeometry x="-665" y="150" width="150" height="50" as="geometry" />
        </mxCell>
        <mxCell id="3EbpttIAYNJNZLYIJczS-47" value="&lt;span style=&quot;font-size: 14px;&quot;&gt;Получение выписки&lt;/span&gt;" style="ellipse;whiteSpace=wrap;html=1;" vertex="1" parent="1">
          <mxGeometry x="-760" y="220" width="140" height="60" as="geometry" />
        </mxCell>
        <mxCell id="3EbpttIAYNJNZLYIJczS-58" style="rounded=0;orthogonalLoop=1;jettySize=auto;html=1;exitX=0.5;exitY=1;exitDx=0;exitDy=0;entryX=0.5;entryY=0;entryDx=0;entryDy=0;strokeColor=none;dashed=1;" edge="1" parent="1" source="3EbpttIAYNJNZLYIJczS-50" target="3EbpttIAYNJNZLYIJczS-56">
          <mxGeometry relative="1" as="geometry" />
        </mxCell>
        <mxCell id="3EbpttIAYNJNZLYIJczS-60" style="rounded=0;orthogonalLoop=1;jettySize=auto;html=1;exitX=0;exitY=0.5;exitDx=0;exitDy=0;entryX=1;entryY=0.5;entryDx=0;entryDy=0;dashed=1;" edge="1" parent="1" source="3EbpttIAYNJNZLYIJczS-50" target="3EbpttIAYNJNZLYIJczS-56">
          <mxGeometry relative="1" as="geometry" />
        </mxCell>
        <mxCell id="3EbpttIAYNJNZLYIJczS-62" value="include" style="edgeLabel;html=1;align=center;verticalAlign=middle;resizable=0;points=[];" connectable="0" vertex="1" parent="3EbpttIAYNJNZLYIJczS-60">
          <mxGeometry x="0.0207" y="1" relative="1" as="geometry">
            <mxPoint as="offset" />
          </mxGeometry>
        </mxCell>
        <mxCell id="3EbpttIAYNJNZLYIJczS-61" style="rounded=0;orthogonalLoop=1;jettySize=auto;html=1;dashed=1;exitX=0;exitY=1;exitDx=0;exitDy=0;" edge="1" parent="1" source="3EbpttIAYNJNZLYIJczS-50" target="3EbpttIAYNJNZLYIJczS-57">
          <mxGeometry relative="1" as="geometry">
            <mxPoint x="-610" y="470" as="sourcePoint" />
          </mxGeometry>
        </mxCell>
        <mxCell id="3EbpttIAYNJNZLYIJczS-63" value="include" style="edgeLabel;html=1;align=center;verticalAlign=middle;resizable=0;points=[];" connectable="0" vertex="1" parent="3EbpttIAYNJNZLYIJczS-61">
          <mxGeometry x="-0.0433" y="-1" relative="1" as="geometry">
            <mxPoint as="offset" />
          </mxGeometry>
        </mxCell>
        <mxCell id="3EbpttIAYNJNZLYIJczS-80" style="rounded=0;orthogonalLoop=1;jettySize=auto;html=1;exitX=0.5;exitY=1;exitDx=0;exitDy=0;entryX=0.5;entryY=0;entryDx=0;entryDy=0;dashed=1;" edge="1" parent="1" source="3EbpttIAYNJNZLYIJczS-50" target="3EbpttIAYNJNZLYIJczS-79">
          <mxGeometry relative="1" as="geometry" />
        </mxCell>
        <mxCell id="3EbpttIAYNJNZLYIJczS-81" value="include" style="edgeLabel;html=1;align=center;verticalAlign=middle;resizable=0;points=[];" connectable="0" vertex="1" parent="3EbpttIAYNJNZLYIJczS-80">
          <mxGeometry x="-0.1417" y="-1" relative="1" as="geometry">
            <mxPoint as="offset" />
          </mxGeometry>
        </mxCell>
        <mxCell id="3EbpttIAYNJNZLYIJczS-50" value="&lt;span style=&quot;font-size: 14px;&quot;&gt;Управление кредитами&lt;/span&gt;" style="ellipse;whiteSpace=wrap;html=1;" vertex="1" parent="1">
          <mxGeometry x="-570" y="335" width="140" height="60" as="geometry" />
        </mxCell>
        <mxCell id="3EbpttIAYNJNZLYIJczS-52" value="&lt;font style=&quot;font-size: 14px;&quot;&gt;Закрытие счета&lt;/font&gt;" style="ellipse;whiteSpace=wrap;html=1;" vertex="1" parent="1">
          <mxGeometry x="130" y="500" width="140" height="60" as="geometry" />
        </mxCell>
        <mxCell id="2VnpgQf47x4x5eaEPzZE-2" style="rounded=0;orthogonalLoop=1;jettySize=auto;html=1;exitX=0;exitY=1;exitDx=0;exitDy=0;entryX=0.5;entryY=0;entryDx=0;entryDy=0;dashed=1;" edge="1" parent="1" source="3EbpttIAYNJNZLYIJczS-56" target="m51DirnIyafkqOL15W59-3">
          <mxGeometry relative="1" as="geometry" />
        </mxCell>
        <mxCell id="2VnpgQf47x4x5eaEPzZE-3" value="extend" style="edgeLabel;html=1;align=center;verticalAlign=middle;resizable=0;points=[];" connectable="0" vertex="1" parent="2VnpgQf47x4x5eaEPzZE-2">
          <mxGeometry x="-0.0204" y="-4" relative="1" as="geometry">
            <mxPoint as="offset" />
          </mxGeometry>
        </mxCell>
        <mxCell id="3EbpttIAYNJNZLYIJczS-56" value="&lt;span style=&quot;font-size: 14px;&quot;&gt;Подача заявки на кредит&lt;/span&gt;" style="ellipse;whiteSpace=wrap;html=1;" vertex="1" parent="1">
          <mxGeometry x="-790" y="360" width="130" height="60" as="geometry" />
        </mxCell>
        <mxCell id="3EbpttIAYNJNZLYIJczS-57" value="&lt;span style=&quot;font-size: 14px;&quot;&gt;Погашение кредита&lt;/span&gt;" style="ellipse;whiteSpace=wrap;html=1;" vertex="1" parent="1">
          <mxGeometry x="-740" y="440" width="140" height="60" as="geometry" />
        </mxCell>
        <mxCell id="3EbpttIAYNJNZLYIJczS-70" style="rounded=0;orthogonalLoop=1;jettySize=auto;html=1;exitX=0;exitY=0.5;exitDx=0;exitDy=0;entryX=1;entryY=0.5;entryDx=0;entryDy=0;dashed=1;" edge="1" parent="1" source="3EbpttIAYNJNZLYIJczS-65" target="3EbpttIAYNJNZLYIJczS-68">
          <mxGeometry relative="1" as="geometry" />
        </mxCell>
        <mxCell id="3EbpttIAYNJNZLYIJczS-71" value="include" style="edgeLabel;html=1;align=center;verticalAlign=middle;resizable=0;points=[];" connectable="0" vertex="1" parent="3EbpttIAYNJNZLYIJczS-70">
          <mxGeometry x="-0.1324" y="1" relative="1" as="geometry">
            <mxPoint as="offset" />
          </mxGeometry>
        </mxCell>
        <mxCell id="3EbpttIAYNJNZLYIJczS-74" style="rounded=0;orthogonalLoop=1;jettySize=auto;html=1;exitX=0;exitY=1;exitDx=0;exitDy=0;entryX=1;entryY=0.5;entryDx=0;entryDy=0;dashed=1;" edge="1" parent="1" source="3EbpttIAYNJNZLYIJczS-65" target="3EbpttIAYNJNZLYIJczS-72">
          <mxGeometry relative="1" as="geometry" />
        </mxCell>
        <mxCell id="3EbpttIAYNJNZLYIJczS-75" value="include" style="edgeLabel;html=1;align=center;verticalAlign=middle;resizable=0;points=[];" connectable="0" vertex="1" parent="3EbpttIAYNJNZLYIJczS-74">
          <mxGeometry x="-0.0101" relative="1" as="geometry">
            <mxPoint as="offset" />
          </mxGeometry>
        </mxCell>
        <mxCell id="3EbpttIAYNJNZLYIJczS-77" style="rounded=0;orthogonalLoop=1;jettySize=auto;html=1;exitX=0.5;exitY=1;exitDx=0;exitDy=0;entryX=0.5;entryY=0;entryDx=0;entryDy=0;dashed=1;" edge="1" parent="1" source="3EbpttIAYNJNZLYIJczS-65" target="3EbpttIAYNJNZLYIJczS-76">
          <mxGeometry relative="1" as="geometry" />
        </mxCell>
        <mxCell id="3EbpttIAYNJNZLYIJczS-78" value="include" style="edgeLabel;html=1;align=center;verticalAlign=middle;resizable=0;points=[];" connectable="0" vertex="1" parent="3EbpttIAYNJNZLYIJczS-77">
          <mxGeometry x="-0.0724" y="1" relative="1" as="geometry">
            <mxPoint as="offset" />
          </mxGeometry>
        </mxCell>
        <mxCell id="3EbpttIAYNJNZLYIJczS-65" value="&lt;span style=&quot;font-size: 14px;&quot;&gt;Управление вкладами&lt;/span&gt;" style="ellipse;whiteSpace=wrap;html=1;" vertex="1" parent="1">
          <mxGeometry x="-515" y="560" width="140" height="60" as="geometry" />
        </mxCell>
        <mxCell id="3EbpttIAYNJNZLYIJczS-68" value="&lt;span style=&quot;font-size: 14px;&quot;&gt;Открыте вклада&lt;/span&gt;" style="ellipse;whiteSpace=wrap;html=1;" vertex="1" parent="1">
          <mxGeometry x="-740" y="565" width="140" height="60" as="geometry" />
        </mxCell>
        <mxCell id="3EbpttIAYNJNZLYIJczS-72" value="&lt;span style=&quot;font-size: 14px;&quot;&gt;Просмотр информации о вкладе&lt;/span&gt;" style="ellipse;whiteSpace=wrap;html=1;" vertex="1" parent="1">
          <mxGeometry x="-730" y="650" width="140" height="60" as="geometry" />
        </mxCell>
        <mxCell id="3EbpttIAYNJNZLYIJczS-76" value="&lt;span style=&quot;font-size: 14px;&quot;&gt;Досрочное закрытие вклада&lt;/span&gt;" style="ellipse;whiteSpace=wrap;html=1;" vertex="1" parent="1">
          <mxGeometry x="-555" y="700" width="110" height="70" as="geometry" />
        </mxCell>
        <mxCell id="3EbpttIAYNJNZLYIJczS-79" value="&lt;span style=&quot;font-size: 14px;&quot;&gt;Просмотр информации о существующих кредитах&lt;/span&gt;" style="ellipse;whiteSpace=wrap;html=1;" vertex="1" parent="1">
          <mxGeometry x="-580" y="450" width="190" height="70" as="geometry" />
        </mxCell>
        <mxCell id="3EbpttIAYNJNZLYIJczS-82" style="edgeStyle=orthogonalEdgeStyle;rounded=0;orthogonalLoop=1;jettySize=auto;html=1;exitX=0;exitY=1;exitDx=0;exitDy=0;exitPerimeter=0;entryX=0.5;entryY=0;entryDx=0;entryDy=0;entryPerimeter=0;endArrow=block;endFill=0;" edge="1" parent="1" source="3EbpttIAYNJNZLYIJczS-1" target="3EbpttIAYNJNZLYIJczS-2">
          <mxGeometry relative="1" as="geometry">
            <Array as="points">
              <mxPoint x="-310" y="480" />
              <mxPoint x="-310" y="810" />
              <mxPoint x="-575" y="810" />
            </Array>
          </mxGeometry>
        </mxCell>
        <mxCell id="3EbpttIAYNJNZLYIJczS-83" value="&lt;span style=&quot;font-size: 14px;&quot;&gt;Просмотр информации о существующих счетах&lt;/span&gt;" style="ellipse;whiteSpace=wrap;html=1;" vertex="1" parent="1">
          <mxGeometry x="130" y="420" width="190" height="60" as="geometry" />
        </mxCell>
        <mxCell id="3EbpttIAYNJNZLYIJczS-87" value="&lt;font style=&quot;font-size: 14px;&quot;&gt;Конвертер валют&lt;/font&gt;" style="ellipse;whiteSpace=wrap;html=1;" vertex="1" parent="1">
          <mxGeometry x="-170" y="1070" width="130" height="65" as="geometry" />
        </mxCell>
        <mxCell id="3EbpttIAYNJNZLYIJczS-96" style="rounded=0;orthogonalLoop=1;jettySize=auto;html=1;exitX=0.5;exitY=1;exitDx=0;exitDy=0;entryX=0.5;entryY=0;entryDx=0;entryDy=0;dashed=1;" edge="1" parent="1" source="3EbpttIAYNJNZLYIJczS-92" target="3EbpttIAYNJNZLYIJczS-94">
          <mxGeometry relative="1" as="geometry" />
        </mxCell>
        <mxCell id="3EbpttIAYNJNZLYIJczS-100" value="include" style="edgeLabel;html=1;align=center;verticalAlign=middle;resizable=0;points=[];" connectable="0" vertex="1" parent="3EbpttIAYNJNZLYIJczS-96">
          <mxGeometry x="-0.1834" y="-1" relative="1" as="geometry">
            <mxPoint as="offset" />
          </mxGeometry>
        </mxCell>
        <mxCell id="3EbpttIAYNJNZLYIJczS-98" style="rounded=0;orthogonalLoop=1;jettySize=auto;html=1;exitX=1;exitY=1;exitDx=0;exitDy=0;dashed=1;entryX=0;entryY=0;entryDx=0;entryDy=0;" edge="1" parent="1" source="3EbpttIAYNJNZLYIJczS-92" target="3EbpttIAYNJNZLYIJczS-95">
          <mxGeometry relative="1" as="geometry">
            <mxPoint x="115" y="580" as="targetPoint" />
          </mxGeometry>
        </mxCell>
        <mxCell id="3EbpttIAYNJNZLYIJczS-99" value="include" style="edgeLabel;html=1;align=center;verticalAlign=middle;resizable=0;points=[];" connectable="0" vertex="1" parent="3EbpttIAYNJNZLYIJczS-98">
          <mxGeometry x="0.0095" y="2" relative="1" as="geometry">
            <mxPoint as="offset" />
          </mxGeometry>
        </mxCell>
        <mxCell id="3EbpttIAYNJNZLYIJczS-92" value="&lt;span style=&quot;font-size: 14px;&quot;&gt;Операции с валютой&lt;/span&gt;" style="ellipse;whiteSpace=wrap;html=1;" vertex="1" parent="1">
          <mxGeometry x="-90" y="520" width="130" height="60" as="geometry" />
        </mxCell>
        <mxCell id="3EbpttIAYNJNZLYIJczS-94" value="&lt;span style=&quot;font-size: 14px;&quot;&gt;Покупка&lt;/span&gt;" style="ellipse;whiteSpace=wrap;html=1;" vertex="1" parent="1">
          <mxGeometry x="20" y="625" width="90" height="50" as="geometry" />
        </mxCell>
        <mxCell id="3EbpttIAYNJNZLYIJczS-95" value="&lt;span style=&quot;font-size: 14px;&quot;&gt;Продажа&lt;/span&gt;" style="ellipse;whiteSpace=wrap;html=1;" vertex="1" parent="1">
          <mxGeometry x="130" y="585" width="90" height="50" as="geometry" />
        </mxCell>
        <mxCell id="3EbpttIAYNJNZLYIJczS-104" style="rounded=0;orthogonalLoop=1;jettySize=auto;html=1;exitX=0.5;exitY=1;exitDx=0;exitDy=0;entryX=0.5;entryY=0;entryDx=0;entryDy=0;dashed=1;" edge="1" parent="1" source="3EbpttIAYNJNZLYIJczS-101" target="3EbpttIAYNJNZLYIJczS-103">
          <mxGeometry relative="1" as="geometry" />
        </mxCell>
        <mxCell id="3EbpttIAYNJNZLYIJczS-105" value="include" style="edgeLabel;html=1;align=center;verticalAlign=middle;resizable=0;points=[];" connectable="0" vertex="1" parent="3EbpttIAYNJNZLYIJczS-104">
          <mxGeometry x="-0.1519" y="1" relative="1" as="geometry">
            <mxPoint as="offset" />
          </mxGeometry>
        </mxCell>
        <mxCell id="3EbpttIAYNJNZLYIJczS-107" style="rounded=0;orthogonalLoop=1;jettySize=auto;html=1;exitX=0;exitY=1;exitDx=0;exitDy=0;entryX=0.5;entryY=0;entryDx=0;entryDy=0;dashed=1;" edge="1" parent="1" source="3EbpttIAYNJNZLYIJczS-101" target="3EbpttIAYNJNZLYIJczS-106">
          <mxGeometry relative="1" as="geometry" />
        </mxCell>
        <mxCell id="3EbpttIAYNJNZLYIJczS-108" value="include" style="edgeLabel;html=1;align=center;verticalAlign=middle;resizable=0;points=[];" connectable="0" vertex="1" parent="3EbpttIAYNJNZLYIJczS-107">
          <mxGeometry x="-0.0302" y="1" relative="1" as="geometry">
            <mxPoint x="1" as="offset" />
          </mxGeometry>
        </mxCell>
        <mxCell id="3EbpttIAYNJNZLYIJczS-110" style="rounded=0;orthogonalLoop=1;jettySize=auto;html=1;exitX=1;exitY=1;exitDx=0;exitDy=0;entryX=0.5;entryY=0;entryDx=0;entryDy=0;dashed=1;" edge="1" parent="1" source="3EbpttIAYNJNZLYIJczS-101" target="3EbpttIAYNJNZLYIJczS-109">
          <mxGeometry relative="1" as="geometry" />
        </mxCell>
        <mxCell id="3EbpttIAYNJNZLYIJczS-111" value="include" style="edgeLabel;html=1;align=center;verticalAlign=middle;resizable=0;points=[];" connectable="0" vertex="1" parent="3EbpttIAYNJNZLYIJczS-110">
          <mxGeometry x="-0.0865" y="-2" relative="1" as="geometry">
            <mxPoint as="offset" />
          </mxGeometry>
        </mxCell>
        <mxCell id="3EbpttIAYNJNZLYIJczS-101" value="&lt;span style=&quot;font-size: 14px;&quot;&gt;Контролирование финансов&lt;/span&gt;" style="ellipse;whiteSpace=wrap;html=1;" vertex="1" parent="1">
          <mxGeometry x="-160" y="675" width="150" height="65" as="geometry" />
        </mxCell>
        <mxCell id="3EbpttIAYNJNZLYIJczS-103" value="&lt;font style=&quot;font-size: 14px;&quot;&gt;Просмотр расходов по категориям&lt;/font&gt;" style="ellipse;whiteSpace=wrap;html=1;" vertex="1" parent="1">
          <mxGeometry x="-180" y="860" width="120" height="80" as="geometry" />
        </mxCell>
        <mxCell id="3EbpttIAYNJNZLYIJczS-106" value="&lt;font style=&quot;font-size: 14px;&quot;&gt;Просмотр доходов по категориям&lt;/font&gt;" style="ellipse;whiteSpace=wrap;html=1;" vertex="1" parent="1">
          <mxGeometry x="-260" y="780" width="120" height="80" as="geometry" />
        </mxCell>
        <mxCell id="3EbpttIAYNJNZLYIJczS-109" value="&lt;font style=&quot;font-size: 14px;&quot;&gt;Получение отчетов по расходам/доходам&lt;/font&gt;" style="ellipse;whiteSpace=wrap;html=1;" vertex="1" parent="1">
          <mxGeometry x="-40" y="820" width="190" height="90" as="geometry" />
        </mxCell>
        <mxCell id="m51DirnIyafkqOL15W59-5" style="rounded=0;orthogonalLoop=1;jettySize=auto;html=1;exitX=0.5;exitY=0;exitDx=0;exitDy=0;exitPerimeter=0;entryX=0.5;entryY=1;entryDx=0;entryDy=0;" edge="1" parent="1" source="m51DirnIyafkqOL15W59-1" target="m51DirnIyafkqOL15W59-3">
          <mxGeometry relative="1" as="geometry">
            <mxPoint x="-913.4314575050764" y="869.748737341529" as="targetPoint" />
          </mxGeometry>
        </mxCell>
        <mxCell id="m51DirnIyafkqOL15W59-6" style="rounded=0;orthogonalLoop=1;jettySize=auto;html=1;exitX=0.5;exitY=0;exitDx=0;exitDy=0;exitPerimeter=0;entryX=0.5;entryY=1;entryDx=0;entryDy=0;" edge="1" parent="1" source="m51DirnIyafkqOL15W59-1" target="2VnpgQf47x4x5eaEPzZE-1">
          <mxGeometry relative="1" as="geometry">
            <mxPoint x="-770" y="880" as="targetPoint" />
          </mxGeometry>
        </mxCell>
        <mxCell id="m51DirnIyafkqOL15W59-1" value="Администратор" style="shape=umlActor;verticalLabelPosition=bottom;verticalAlign=top;html=1;outlineConnect=0;fontSize=14;" vertex="1" parent="1">
          <mxGeometry x="-857" y="900" width="30" height="60" as="geometry" />
        </mxCell>
        <mxCell id="m51DirnIyafkqOL15W59-2" style="edgeStyle=orthogonalEdgeStyle;rounded=0;orthogonalLoop=1;jettySize=auto;html=1;exitX=1;exitY=1;exitDx=0;exitDy=0;exitPerimeter=0;entryX=0.5;entryY=0;entryDx=0;entryDy=0;entryPerimeter=0;endArrow=block;endFill=0;" edge="1" parent="1" source="m51DirnIyafkqOL15W59-1" target="3EbpttIAYNJNZLYIJczS-2">
          <mxGeometry relative="1" as="geometry">
            <Array as="points">
              <mxPoint x="-730" y="960" />
              <mxPoint x="-730" y="1019" />
              <mxPoint x="-575" y="1019" />
            </Array>
          </mxGeometry>
        </mxCell>
        <mxCell id="m51DirnIyafkqOL15W59-9" style="rounded=0;orthogonalLoop=1;jettySize=auto;html=1;exitX=0;exitY=1;exitDx=0;exitDy=0;entryX=1;entryY=0.5;entryDx=0;entryDy=0;dashed=1;" edge="1" parent="1" source="m51DirnIyafkqOL15W59-3" target="m51DirnIyafkqOL15W59-7">
          <mxGeometry relative="1" as="geometry" />
        </mxCell>
        <mxCell id="m51DirnIyafkqOL15W59-10" value="include&amp;nbsp;" style="edgeLabel;html=1;align=center;verticalAlign=middle;resizable=0;points=[];" connectable="0" vertex="1" parent="m51DirnIyafkqOL15W59-9">
          <mxGeometry x="-0.0399" y="1" relative="1" as="geometry">
            <mxPoint as="offset" />
          </mxGeometry>
        </mxCell>
        <mxCell id="m51DirnIyafkqOL15W59-11" style="rounded=0;orthogonalLoop=1;jettySize=auto;html=1;exitX=0;exitY=0;exitDx=0;exitDy=0;entryX=1;entryY=0.5;entryDx=0;entryDy=0;dashed=1;" edge="1" parent="1" source="m51DirnIyafkqOL15W59-3" target="m51DirnIyafkqOL15W59-8">
          <mxGeometry relative="1" as="geometry" />
        </mxCell>
        <mxCell id="m51DirnIyafkqOL15W59-12" value="include" style="edgeLabel;html=1;align=center;verticalAlign=middle;resizable=0;points=[];" connectable="0" vertex="1" parent="m51DirnIyafkqOL15W59-11">
          <mxGeometry x="-0.051" relative="1" as="geometry">
            <mxPoint as="offset" />
          </mxGeometry>
        </mxCell>
        <mxCell id="m51DirnIyafkqOL15W59-3" value="&lt;font style=&quot;font-size: 14px;&quot;&gt;Рассмотрение заявки на кредит&lt;/font&gt;" style="ellipse;whiteSpace=wrap;html=1;" vertex="1" parent="1">
          <mxGeometry x="-957" y="810" width="130" height="60" as="geometry" />
        </mxCell>
        <mxCell id="m51DirnIyafkqOL15W59-7" value="&lt;font style=&quot;font-size: 14px;&quot;&gt;Одобрение&lt;/font&gt;" style="ellipse;whiteSpace=wrap;html=1;" vertex="1" parent="1">
          <mxGeometry x="-1120" y="860" width="110" height="50" as="geometry" />
        </mxCell>
        <mxCell id="m51DirnIyafkqOL15W59-8" value="&lt;font style=&quot;font-size: 14px;&quot;&gt;Отказ&lt;/font&gt;" style="ellipse;whiteSpace=wrap;html=1;" vertex="1" parent="1">
          <mxGeometry x="-1120" y="780" width="110" height="50" as="geometry" />
        </mxCell>
        <mxCell id="2VnpgQf47x4x5eaEPzZE-1" value="&lt;font style=&quot;font-size: 14px;&quot;&gt;Отправление сообщений пользователю&lt;/font&gt;" style="ellipse;whiteSpace=wrap;html=1;" vertex="1" parent="1">
          <mxGeometry x="-830" y="760" width="160" height="70" as="geometry" />
        </mxCell>
      </root>
    </mxGraphModel>
  </diagram>
</mxfile>
